<?xml version="1.0" encoding="iso-8859-1"?>
<!-- Generator: Adobe Illustrator 19.0.0, SVG Export Plug-In . SVG Version: 6.00 Build 0)  -->
<svg version="1.1" id="Capa_1" xmlns="http://www.w3.org/2000/svg" xmlns:xlink="http://www.w3.org/1999/xlink" x="0px" y="0px"
	 viewBox="0 0 512 512" style="enable-background:new 0 0 512 512;" xml:space="preserve">
<path style="fill:#89B140;" d="M201.143,300.933c-2.341,0-4.681-0.896-6.464-2.679l-41.719-41.71l-22.071,7.351
	c-4.809,1.609-9.975-0.987-11.566-5.778c-1.6-4.791,0.987-9.975,5.778-11.566l27.429-9.143c3.282-1.115,6.903-0.247,9.353,2.203
	l45.714,45.714c3.575,3.575,3.575,9.353,0,12.928C205.824,300.037,203.483,300.933,201.143,300.933z"/>
<path style="fill:#AAC16B;" d="M137.143,392.361h365.714v-64c0-20.197-16.375-36.571-36.571-36.571H173.714
	c-20.197,0-36.571,16.375-36.571,36.571V392.361z"/>
<path style="fill:#B9B9B9;" d="M91.429,273.504c-1.006,0-2.039-0.174-3.045-0.521c-5.175-1.829-9.774-4.736-13.678-8.631
	c-2.816-2.816-5.12-6.034-6.848-9.563c-15.817,4.763-33.28,0.649-45.33-11.401c-8.631-8.631-13.385-20.105-13.385-32.32
	c0-10.267,3.365-20.014,9.563-27.995C6.848,171.168,0,154.921,0,137.925c0-35.282,28.709-64,64-64
	c32.411,0,59.282,24.219,63.442,55.515c11.392,1.783,21.897,7.095,30.208,15.415c8.174,8.165,13.413,18.533,15.205,29.879
	c7.067,0.805,13.733,3.968,18.917,9.143c6.043,6.034,9.371,14.062,9.371,22.619c0,8.549-3.328,16.576-9.371,22.629
	c-3.575,3.575-9.353,3.575-12.928,0c-3.575-3.575-3.575-9.353,0-12.928c2.587-2.597,4.014-6.043,4.014-9.701
	s-1.426-7.104-4.014-9.701c-3.282-3.273-7.973-4.672-12.562-3.685c-2.706,0.576-5.541-0.128-7.689-1.874
	c-2.149-1.765-3.374-4.398-3.346-7.177c0.119-10.039-3.621-19.365-10.533-26.277c-6.903-6.912-16.091-10.715-25.856-10.715
	c-5.047,0-9.143-4.087-9.143-9.143c0-25.207-20.507-45.714-45.714-45.714s-45.714,20.507-45.714,45.714
	c0,14.702,7.195,28.617,19.237,37.202c2.331,1.673,3.749,4.334,3.831,7.186c0.082,2.862-1.179,5.595-3.419,7.397l-1.152,0.896
	c-0.439,0.338-0.896,0.649-1.307,1.051c-5.193,5.193-8.046,12.078-8.046,19.41s2.853,14.217,8.027,19.392
	c8.832,8.832,22.555,10.487,33.371,4.069c2.624-1.554,5.87-1.719,8.622-0.402c2.752,1.317,4.681,3.931,5.111,6.967
	c0.567,4.005,2.322,7.579,5.065,10.331c1.957,1.957,4.261,3.41,6.83,4.315c4.763,1.682,7.259,6.903,5.577,11.666
	C98.725,271.154,95.195,273.504,91.429,273.504z"/>
<g>
	<rect x="219.429" y="163.79" style="fill:#D9D9D9;" width="18.286" height="18.286"/>
	<rect x="265.143" y="172.933" style="fill:#D9D9D9;" width="18.286" height="18.286"/>
	<rect x="54.857" y="319.218" style="fill:#D9D9D9;" width="18.286" height="18.286"/>
	<rect x="27.429" y="282.647" style="fill:#D9D9D9;" width="18.286" height="18.286"/>
</g>
<g>
	<path style="fill:#89B140;" d="M201.143,346.647c-5.047,0-9.143-4.087-9.143-9.143v-9.143c0-5.056,4.096-9.143,9.143-9.143
		s9.143,4.087,9.143,9.143v9.143C210.286,342.56,206.19,346.647,201.143,346.647z"/>
	<path style="fill:#89B140;" d="M438.857,346.647c-5.047,0-9.143-4.087-9.143-9.143v-9.143c0-5.056,4.096-9.143,9.143-9.143
		c5.047,0,9.143,4.087,9.143,9.143v9.143C448,342.56,443.904,346.647,438.857,346.647z"/>
	<path style="fill:#89B140;" d="M393.143,337.504h-18.286c-5.047,0-9.143-4.087-9.143-9.143s4.096-9.143,9.143-9.143h18.286
		c5.047,0,9.143,4.087,9.143,9.143S398.19,337.504,393.143,337.504z"/>
</g>
<g>
	<circle style="fill:#A8A8A8;" cx="420.571" cy="401.504" r="27.429"/>
	<circle style="fill:#A8A8A8;" cx="219.429" cy="401.504" r="27.429"/>
</g>
<g>
	<path style="fill:#787D82;" d="M420.571,438.075c-20.169,0-36.571-16.402-36.571-36.571c0-20.169,16.402-36.571,36.571-36.571
		s36.571,16.402,36.571,36.571C457.143,421.673,440.741,438.075,420.571,438.075z M420.571,383.218
		c-10.085,0-18.286,8.201-18.286,18.286c0,10.085,8.201,18.286,18.286,18.286c10.085,0,18.286-8.201,18.286-18.286
		C438.857,391.419,430.656,383.218,420.571,383.218z"/>
	<path style="fill:#787D82;" d="M219.429,438.075c-20.169,0-36.571-16.402-36.571-36.571c0-20.169,16.402-36.571,36.571-36.571
		S256,381.335,256,401.504C256,421.673,239.598,438.075,219.429,438.075z M219.429,383.218c-10.085,0-18.286,8.201-18.286,18.286
		c0,10.085,8.201,18.286,18.286,18.286c10.085,0,18.286-8.201,18.286-18.286C237.714,391.419,229.513,383.218,219.429,383.218z"/>
</g>
<path style="fill:#89B140;" d="M274.295,364.933c-2.953,0-5.851-1.426-7.616-4.069c-2.798-4.206-1.664-9.874,2.533-12.681
	l23.36-15.57V291.79c0-5.056,4.096-9.143,9.143-9.143s9.143,4.087,9.143,9.143v45.714c0,3.054-1.527,5.906-4.069,7.607
	l-27.429,18.286C277.797,364.43,276.032,364.933,274.295,364.933z"/>
<path style="fill:#8ACED8;" d="M201.143,291.79h237.714l-40.338-64.549c-3.337-5.349-9.198-8.594-15.506-8.594H256.987
	c-6.309,0-12.169,3.246-15.506,8.594L201.143,291.79z"/>
<rect x="301.714" y="218.647" style="fill:#AAC16B;" width="36.571" height="73.143"/>
<path d="M466.286,282.647h-22.354l-37.659-60.242c-5.038-8.082-13.733-12.901-23.259-12.901h-44.727h-36.571h-44.727
	c-9.527,0-18.222,4.818-23.259,12.891l-34.249,54.802l-37.586-37.586c-2.45-2.459-6.071-3.319-9.353-2.203l-27.429,9.143
	c-4.791,1.591-7.378,6.766-5.778,11.566c1.591,4.782,6.757,7.387,11.566,5.778l22.071-7.351l26.112,26.103h-5.367
	c-25.207,0-45.714,20.507-45.714,45.714v64c0,5.056,4.096,9.143,9.143,9.143h45.714c0,20.169,16.402,36.571,36.571,36.571
	S256,421.673,256,401.504h128c0,20.169,16.402,36.571,36.571,36.571s36.571-16.402,36.571-36.571h45.714
	c5.047,0,9.143-4.087,9.143-9.143v-64C512,303.154,491.493,282.647,466.286,282.647z M390.757,232.096l31.607,50.551h-74.935V227.79
	h35.584C386.185,227.79,389.074,229.399,390.757,232.096z M329.143,227.79v54.857h-18.286V227.79H329.143z M249.243,232.087
	c1.682-2.688,4.571-4.297,7.753-4.297h35.575v54.857h-74.935L249.243,232.087z M219.429,419.79
	c-10.085,0-18.286-8.201-18.286-18.286h36.571C237.714,411.589,229.513,419.79,219.429,419.79z M420.571,419.79
	c-10.085,0-18.286-8.201-18.286-18.286h36.571C438.857,411.589,430.656,419.79,420.571,419.79z M493.714,383.218h-41.655
	c-6.345-10.88-18.011-18.286-31.488-18.286s-25.143,7.406-31.488,18.286H250.917c-6.345-10.88-18.011-18.286-31.488-18.286
	c-13.477,0-25.143,7.406-31.488,18.286h-41.655v-54.857c0-15.122,12.306-27.429,27.429-27.429h27.429h91.429v31.68l-23.36,15.57
	c-4.197,2.807-5.33,8.475-2.533,12.681c1.765,2.642,4.663,4.069,7.616,4.069c1.737,0,3.502-0.503,5.065-1.536l27.429-18.286
	c2.542-1.691,4.069-4.553,4.069-7.607v-36.571h27.429h100.571h27.429c15.122,0,27.429,12.306,27.429,27.429V383.218z"/>
<path d="M67.867,254.789c1.728,3.529,4.032,6.747,6.848,9.563c3.904,3.904,8.503,6.802,13.678,8.631
	c1.006,0.347,2.03,0.521,3.045,0.521c3.767,0,7.296-2.35,8.622-6.098c1.682-4.763-0.814-9.993-5.577-11.666
	c-2.569-0.905-4.873-2.359-6.83-4.315c-2.743-2.752-4.498-6.318-5.065-10.331c-0.43-3.035-2.35-5.641-5.111-6.967
	c-2.761-1.326-5.998-1.152-8.622,0.402c-10.825,6.418-24.539,4.763-33.371-4.069c-5.202-5.175-8.055-12.059-8.055-19.392
	s2.853-14.217,8.046-19.41c0.402-0.402,0.859-0.713,1.307-1.051l1.152-0.896c2.24-1.792,3.502-4.526,3.419-7.397
	c-0.082-2.853-1.499-5.522-3.831-7.186c-12.041-8.585-19.237-22.501-19.237-37.202c0-25.207,20.507-45.714,45.714-45.714
	s45.714,20.507,45.714,45.714c0,5.056,4.096,9.143,9.143,9.143c9.765,0,18.953,3.803,25.865,10.715
	c6.903,6.912,10.651,16.238,10.533,26.277c-0.027,2.779,1.198,5.413,3.346,7.177c2.139,1.746,4.983,2.459,7.689,1.874
	c4.59-0.978,9.28,0.411,12.562,3.685c2.578,2.597,4.005,6.043,4.005,9.701s-1.426,7.104-4.014,9.701
	c-3.575,3.575-3.575,9.353,0,12.928c3.575,3.575,9.353,3.575,12.928,0c6.043-6.053,9.371-14.08,9.371-22.629
	c0-8.558-3.328-16.585-9.371-22.629c-5.175-5.175-11.849-8.338-18.917-9.143c-1.792-11.337-7.031-21.714-15.205-29.879
	c-8.311-8.311-18.816-13.623-30.208-15.415C123.282,98.144,96.411,73.925,64,73.925c-35.291,0-64,28.718-64,64
	c0,16.997,6.848,33.243,18.706,45.147c-6.199,7.982-9.563,17.728-9.563,27.995c0,12.215,4.754,23.689,13.385,32.32
	C34.587,255.447,52.05,259.552,67.867,254.789z"/>
<rect x="219.429" y="163.79" width="18.286" height="18.286"/>
<rect x="265.143" y="172.933" width="18.286" height="18.286"/>
<rect x="54.857" y="319.218" width="18.286" height="18.286"/>
<rect x="27.429" y="282.647" width="18.286" height="18.286"/>
<path d="M201.143,319.218c-5.047,0-9.143,4.087-9.143,9.143v9.143c0,5.056,4.096,9.143,9.143,9.143s9.143-4.087,9.143-9.143v-9.143
	C210.286,323.305,206.19,319.218,201.143,319.218z"/>
<path d="M438.857,319.218c-5.047,0-9.143,4.087-9.143,9.143v9.143c0,5.056,4.096,9.143,9.143,9.143c5.047,0,9.143-4.087,9.143-9.143
	v-9.143C448,323.305,443.904,319.218,438.857,319.218z"/>
<path d="M393.143,319.218h-18.286c-5.047,0-9.143,4.087-9.143,9.143s4.096,9.143,9.143,9.143h18.286
	c5.047,0,9.143-4.087,9.143-9.143S398.19,319.218,393.143,319.218z"/>
<g>
</g>
<g>
</g>
<g>
</g>
<g>
</g>
<g>
</g>
<g>
</g>
<g>
</g>
<g>
</g>
<g>
</g>
<g>
</g>
<g>
</g>
<g>
</g>
<g>
</g>
<g>
</g>
<g>
</g>
</svg>
