<?xml version="1.0" encoding="iso-8859-1"?>
<!-- Generator: Adobe Illustrator 19.0.0, SVG Export Plug-In . SVG Version: 6.00 Build 0)  -->
<svg version="1.1" id="Capa_1" xmlns="http://www.w3.org/2000/svg" xmlns:xlink="http://www.w3.org/1999/xlink" x="0px" y="0px"
	 viewBox="0 0 512 512" style="enable-background:new 0 0 512 512;" xml:space="preserve">
<circle style="fill:#FFDE1F;" cx="256" cy="256" r="256"/>
<path style="fill:#F9C41E;" d="M511.576,270.61L327.185,86.22l-185.958,8.195L79.5,364.5l145.643,145.643
	C235.261,511.359,245.555,512,256,512C392.48,512,504.001,405.195,511.576,270.61z"/>
<polygon style="fill:#455A64;" points="151.5,364.5 79.5,364.5 144.5,75 175,75 "/>
<polygon style="fill:#546E7A;" points="369.482,146.201 322.636,102.64 285.364,102.64 285.364,102.64 238.518,146.201 
	262.859,146.201 304,115.615 345.141,146.201 "/>
<polygon style="fill:#455A64;" points="369.482,146.201 322.636,102.64 304.167,102.64 304.167,115.738 345.141,146.201 "/>
<polygon style="fill:#546E7A;" points="262.859,146.454 238.518,146.454 264.723,185.014 289.065,185.014 "/>
<circle style="fill:#788F9B;" cx="252.08" cy="146.58" r="15.02"/>
<polygon style="fill:#455A64;" points="369.482,146.454 345.141,146.454 318.935,185.014 343.277,185.014 "/>
<circle style="fill:#607D8A;" cx="355.92" cy="146.58" r="15.02"/>
<path style="fill:#1B56DB;" d="M451.333,289.186c0-19.963-16.183-36.147-36.147-36.147h-23.882v-17.636
	c0-19.313-15.656-34.968-34.968-34.968h-90.335c-19.313,0-34.968,15.656-34.968,34.968v17.636h-13.801
	c-25.531,0-46.228,20.697-46.228,46.228v6.232h280.329L451.333,289.186L451.333,289.186z"/>
<path style="fill:#134AAA;" d="M451.333,289.186c0-19.963-16.183-36.147-36.147-36.147h-23.882v-17.636
	c0-19.313-15.656-34.968-34.968-34.968H311.31V305.5h140.024L451.333,289.186L451.333,289.186z"/>
<rect x="164.17" y="301.97" style="fill:#347FEA;" width="294" height="26"/>
<rect x="311.31" y="301.97" style="fill:#1B56DB;" width="146.86" height="26"/>
<circle style="fill:#37474F;" cx="226.82" cy="323.66" r="36"/>
<circle style="fill:#546E7A;" cx="226.82" cy="323.66" r="19.468"/>
<circle style="fill:#263238;" cx="394.1" cy="323.66" r="36"/>
<circle style="fill:#455A64;" cx="394.1" cy="323.66" r="19.468"/>
<path style="fill:#91CCFE;" d="M245.24,255.768h57.478v-41.962h-36.497c-11.587,0-20.981,9.394-20.981,20.981V255.768z"/>
<path style="fill:#228CE4;" d="M377.098,234.787c0-11.587-9.393-20.981-20.981-20.981H319.62v41.962h57.478V234.787z"/>
<polygon style="fill:#455A64;" points="170.5,55 304,87 304,111 164,93 "/>
<circle style="fill:#607D8A;" cx="166.5" cy="76.5" r="27.5"/>
<path style="fill:#546E7A;" d="M194,76.5c0-15.132-12.223-27.406-27.333-27.496v54.992C181.777,103.906,194,91.632,194,76.5z"/>
<circle style="fill:#607D8A;" cx="304" cy="101" r="27.5"/>
<path style="fill:#546E7A;" d="M331.5,101c0-15.132-12.223-27.406-27.333-27.496v54.992C319.277,128.406,331.5,116.132,331.5,101z"
	/>
<g>
</g>
<g>
</g>
<g>
</g>
<g>
</g>
<g>
</g>
<g>
</g>
<g>
</g>
<g>
</g>
<g>
</g>
<g>
</g>
<g>
</g>
<g>
</g>
<g>
</g>
<g>
</g>
<g>
</g>
</svg>
