<svg id="Capa_1" enable-background="new 0 0 512 512" height="512" viewBox="0 0 512 512" width="512" xmlns="http://www.w3.org/2000/svg"><g><g><ellipse cx="123.141" cy="388.858" fill="#fedf30" rx="123.141" ry="123.141" transform="matrix(.707 -.707 .707 .707 -238.897 200.968)"/><path d="m162.14 272.026c32.16 22.217 53.237 59.334 53.237 101.38 0 68.009-55.132 123.141-123.141 123.141-13.631 0-26.742-2.219-38.998-6.309 19.858 13.72 43.94 21.762 69.903 21.762 68.009 0 123.141-55.132 123.141-123.141.001-54.379-35.248-100.52-84.142-116.833z" fill="#fac600"/><path d="m145.766 305.2c6.966-.056 11.61 6.334 9.277 12.358-6.2 16.009-13.064 31.816-19.756 47.627-.405.957-.115 1.356.678 1.814 12.531 7.234 25.035 14.517 37.578 21.73 6.18 3.553 7.163 10.785 2.007 15.676-22.719 21.552-45.474 43.066-68.221 64.589-3.815 3.61-7.572 4.429-11.484 2.535-4.26-2.063-6.351-6.911-4.612-11.405 2.373-6.133 4.973-12.179 7.499-18.252 4.074-9.798 8.15-19.595 12.278-29.37.421-.998.068-1.352-.7-1.794-12.687-7.296-25.5-14.445-38.029-22.009-5.833-3.521-6.522-10.701-1.55-15.412 22.733-21.539 45.533-43.01 68.221-64.597 2.094-1.99 4.39-3.412 6.814-3.49z" fill="#fea95c"/><path d="m173.543 388.729c-12.544-7.213-25.047-14.496-37.578-21.73-.793-.458-1.083-.857-.678-1.814 6.692-15.811 13.556-31.618 19.756-47.627 2.333-6.024-2.311-12.414-9.277-12.358-2.425.078-4.721 1.5-6.813 3.491-6.019 5.726-12.058 11.433-18.09 17.146-1.105 3.784-8.103 18.849-12.429 29.738-2.482 6.248-.016 13.362 5.802 16.731 9.464 5.48 18.921 10.971 28.401 16.423 6.18 3.553 7.163 10.785 2.007 15.676-16.67 15.813-33.365 31.6-50.056 47.391-1.145 2.766-2.275 5.537-3.355 8.328-1.739 4.494.352 9.343 4.612 11.405 3.911 1.894 7.668 1.075 11.483-2.535 22.747-21.523 45.502-43.037 68.221-64.589 5.158-4.891 4.174-12.122-2.006-15.676z" fill="#fe9738"/></g><g><ellipse cx="388.601" cy="123.399" fill="#b3dafe" rx="123.399" ry="123.399" transform="matrix(.707 -.707 .707 .707 26.562 310.925)"/><path d="m427.715 6.333c32.244 22.262 53.379 59.466 53.379 101.613 0 68.151-55.248 123.399-123.399 123.399-13.672 0-26.823-2.228-39.114-6.333 19.895 13.735 44.015 21.786 70.02 21.786 68.151 0 123.399-55.248 123.399-123.399 0-54.479-35.306-100.708-84.285-117.066z" fill="#8ac9fe"/><path d="m510.195 102.464c-9.947-58.174-60.583-102.464-121.594-102.464-8.903 0-17.577.964-25.945 2.755 2.462 9.911 4.974 21.552 7.235 35.286 3.698 22.461 5.249 41.507 15.951 44.954 10.424 3.357 18.896-11.507 33.353-8.701 12.13 2.354 13.829 14.305 24.652 23.202 14.68 12.068 42.297 15.348 66.348 4.968z" fill="#22b37f"/><path d="m427.729 6.343c9.085 6.286 26.198 19.962 38.827 43.584 9.389 17.561 14.727 37.646 14.529 58.735 15.093-.401 23.612-4.079 29.11-6.198-7.717-45.131-39.925-81.9-82.466-96.121z" fill="#09a76d"/><path d="m316.441 82.429c-3.87-12.489-14.485-24.113-27.43-31.869-14.959 20.417-23.81 45.59-23.81 72.839 0 32.84 12.853 62.661 33.772 84.77 15.48-10.29 26.574-26.856 27.624-41.713.698-9.881-3.622-10.817-7.387-30.471-5.636-29.43 1.932-38.385-2.769-53.556z" fill="#22b37f"/><path d="m346.743 239.503c13.071 4.713 27.162 7.295 41.858 7.295 36.452 0 69.202-15.815 91.791-40.947-8.247-12.23-20.689-23.592-27.724-30.01-9.751-8.897-32.996-30.105-47.331-23.235-11.208 5.371-5.732 22.523-15.49 44.749-10.154 23.132-29.28 34.623-43.104 42.148z" fill="#22b37f"/><path d="m480.392 205.851c-6.558-9.725-15.76-18.891-22.795-25.469-21.929 30.19-57.202 50.057-97.161 50.928-4.787 3.241-9.486 5.903-13.693 8.193 10.156 3.675 37.944 12.218 72.066 3.598 34.011-8.592 54.372-29.197 61.583-37.25z" fill="#09a76d"/></g><path d="m364.506 410.181c68.698-10.512 121.509-62.203 136.257-126.686 1.26-5.508 9.251-5.165 9.95.441.012.099.024.197.037.296 10.947 89.161-51.177 170.453-139.436 183.801-2.594.392-4.402 2.777-4.083 5.381l4.067 33.128c.527 4.292-4.398 7.078-7.805 4.416l-74.908-58.525c-2.112-1.65-2.487-4.7-.836-6.813l58.525-74.908c2.662-3.407 8.115-1.895 8.642 2.397l4.034 32.858c.333 2.717 2.849 4.628 5.556 4.214z" fill="#22b37f"/><g><path d="m371.313 468.033c88.26-13.348 150.384-94.64 139.437-183.801-.012-.099-.024-.197-.037-.296-.698-5.606-8.69-5.949-9.95-.441-5.41 23.652-15.946 45.579-30.503 64.389-19 49.741-61.502 88.809-115.549 101.891-10.713 2.593-17.827 12.735-16.484 23.675l2.166 17.639c.076.617.028 1.198-.101 1.742l23.201 18.127c3.407 2.662 8.332-.124 7.805-4.416l-4.067-33.128c-.32-2.604 1.488-4.989 4.082-5.381z" fill="#09a76d"/></g><path d="m147.494 101.819c-68.698 10.512-121.509 62.203-136.257 126.686-1.26 5.508-9.251 5.165-9.95-.441-.012-.099-.024-.197-.037-.296-10.947-89.161 51.177-170.454 139.437-183.801 2.594-.392 4.402-2.777 4.083-5.381l-4.067-33.128c-.527-4.292 4.398-7.078 7.805-4.416l74.908 58.525c2.112 1.65 2.487 4.7.836 6.813l-58.525 74.908c-2.662 3.407-8.115 1.895-8.642-2.397l-4.034-32.858c-.334-2.718-2.85-4.628-5.557-4.214z" fill="#22b37f"/><g><path d="m223.415 59.567-74.907-58.525c-3.407-2.662-8.332.124-7.806 4.416l1.851 15.078 34.763 27.16c10.503 8.206 12.366 23.373 4.159 33.877l-27.16 34.763 2.769 22.555c.527 4.292 5.98 5.804 8.642 2.397l58.525-74.908c1.651-2.112 1.277-5.163-.836-6.813z" fill="#09a76d"/></g></g></svg>