<svg id="Capa_1" enable-background="new 0 0 512 512" height="512" viewBox="0 0 512 512" width="512" xmlns="http://www.w3.org/2000/svg"><g><g><path d="m458.694 421.735c-.119 0-.239-.003-.358-.009-2.43-.115-4.651-1.402-5.961-3.451l-13.453-21.039c-2.231-3.489-1.212-8.127 2.278-10.358 3.487-2.232 8.128-1.212 10.358 2.278l7.753 12.124 5.193-6.632c2.555-3.261 7.27-3.833 10.529-1.281 3.261 2.554 3.835 7.268 1.281 10.529l-11.717 14.963c-1.424 1.82-3.605 2.876-5.903 2.876z" fill="#61aab7"/></g><g><path d="m39.624 421.735c-2.302 0-4.483-1.059-5.908-2.881l-11.695-14.963c-2.551-3.264-1.973-7.978 1.29-10.528 3.264-2.549 7.977-1.972 10.528 1.29l5.274 6.748 17.279-26.162c2.281-3.457 6.933-4.407 10.392-2.124 3.456 2.282 4.407 6.935 2.124 10.392l-23.025 34.862c-1.33 2.014-3.548 3.264-5.959 3.36-.1.004-.2.006-.3.006z" fill="#61aab7"/></g><path d="m234.073 101.31-156.338 211.038c-13.341 18.009-.486 43.532 21.927 43.532h312.676c22.413 0 35.269-25.523 21.927-43.532l-156.338-211.038c-10.909-14.727-32.945-14.727-43.854 0z" fill="#da4a54"/><path d="m434.266 312.348-156.339-211.038c-8.807-11.888-24.861-14.173-36.462-6.868 2.77 1.744 5.289 4.03 7.392 6.868l156.338 211.038c13.341 18.009.485 43.532-21.927 43.532h29.071c22.412 0 35.268-25.523 21.927-43.532z" fill="#d82e3d"/><path d="m148.788 300.432 104.468-141.02c1.365-1.843 4.123-1.843 5.488 0l104.469 141.02c1.67 2.254.061 5.448-2.744 5.448h-208.937c-2.805 0-4.414-3.194-2.744-5.448z" fill="#f6e266"/><path d="m363.213 300.432-104.469-141.02c-1.365-1.843-4.123-1.843-5.489 0l-9.849 13.296 94.619 127.724c1.67 2.254.061 5.448-2.744 5.448h25.188c2.805 0 4.414-3.194 2.744-5.448z" fill="#ffd064"/><g fill="#544f57"><path d="m135.929 355.88h74.739v28.43h-74.739z"/><path d="m301.333 355.88h74.739v28.43h-74.739z"/></g><path d="m193.169 355.88h17.499v28.43h-17.499z" fill="#454045"/><path d="m358.573 355.88h17.499v28.43h-17.499z" fill="#454045"/><path d="m406.214 414.235h-300.427v-17.112c0-7.077 5.737-12.813 12.813-12.813h274.8c7.077 0 12.813 5.737 12.813 12.813v17.112z" fill="#afaab4"/><path d="m393.401 384.31h-23.631c7.077 0 12.813 5.737 12.813 12.813v17.112h23.631v-17.112c0-7.076-5.737-12.813-12.813-12.813z" fill="#8b818e"/><g><path d="m504.5 421.735h-497c-4.143 0-7.5-3.357-7.5-7.5s3.357-7.5 7.5-7.5h497c4.143 0 7.5 3.357 7.5 7.5s-3.357 7.5-7.5 7.5z" fill="#78d0b1"/></g></g></svg>