<svg id="waypoint" enable-background="new 0 0 300 300" height="512" viewBox="0 0 300 300" width="512" xmlns="http://www.w3.org/2000/svg"><g><path d="m222 204c-6.617 0-12 5.383-12 12s5.383 12 12 12 12-5.383 12-12-5.383-12-12-12zm0 16c-2.207 0-4-1.793-4-4s1.793-4 4-4 4 1.793 4 4-1.793 4-4 4z"/><path d="m111.172 62.828c.781.781 1.805 1.172 2.828 1.172s2.047-.391 2.828-1.172l3.172-3.172 3.172 3.172c.781.781 1.805 1.172 2.828 1.172s2.047-.391 2.828-1.172c1.562-1.562 1.562-4.094 0-5.656l-3.172-3.172 3.172-3.172c1.562-1.562 1.562-4.094 0-5.656s-4.094-1.562-5.656 0l-3.172 3.172-3.172-3.172c-1.562-1.562-4.094-1.562-5.656 0s-1.562 4.094 0 5.656l3.172 3.172-3.172 3.172c-1.563 1.562-1.563 4.094 0 5.656z"/><circle cx="80" cy="58" r="4.276"/><path d="m243.289 76h-186.578c-10.316 0-18.711 8.395-18.711 18.711v74.578c0 10.316 8.395 18.711 18.711 18.711h77.289v64c0 2.211 1.789 4 4 4s4-1.789 4-4v-64h16v64c0 2.211 1.789 4 4 4s4-1.789 4-4v-64h77.289c10.316 0 18.711-8.395 18.711-18.711v-74.578c0-10.316-8.395-18.711-18.711-18.711zm10.711 93.289c0 5.906-4.805 10.711-10.711 10.711h-186.578c-5.906 0-10.711-4.805-10.711-10.711v-74.578c0-5.906 4.805-10.711 10.711-10.711h186.578c5.906 0 10.711 4.805 10.711 10.711z"/><path d="m242 88h-184c-2.211 0-4 1.789-4 4v80c0 2.211 1.789 4 4 4h184c2.211 0 4-1.789 4-4v-80c0-2.211-1.789-4-4-4zm-4 80h-176v-72h176z"/><path d="m114 156c2.211 0 4-1.789 4-4v-8h4v8c0 2.211 1.789 4 4 4s4-1.789 4-4v-8h4v8c0 2.211 1.789 4 4 4s4-1.789 4-4v-12c0-2.211-1.789-4-4-4h-24c-2.211 0-4 1.789-4 4v12c0 2.211 1.789 4 4 4z"/><path d="m90 156c2.211 0 4-1.789 4-4v-.526l5.781 3.854c.684.453 1.453.672 2.215.672 1.293 0 2.562-.625 3.332-1.781 1.227-1.84.73-4.32-1.109-5.547l-7.941-5.293 8.551-8.551c1.562-1.562 1.562-4.094 0-5.656s-4.094-1.562-5.656 0l-5.173 5.172v-10.344c0-2.211-1.789-4-4-4s-4 1.789-4 4v28c0 2.211 1.789 4 4 4z"/><path d="m167.453 156h8.551c5.512 0 9.996-4.484 9.996-9.996v-8.008c0-5.512-4.484-9.996-9.996-9.996h-10.004v-9.867c0-1.176.957-2.133 2.133-2.133h9.867c2.211 0 4-1.789 4-4s-1.789-4-4-4h-9.867c-5.586 0-10.133 4.547-10.133 10.133v28.414c0 5.211 4.242 9.453 9.453 9.453zm-1.453-20h10.004c1.102 0 1.996.895 1.996 1.996v8.008c0 1.102-.895 1.996-1.996 1.996h-8.551c-.801 0-1.453-.652-1.453-1.453z"/><path d="m199.805 156h8.391c5.406 0 9.805-4.398 9.805-9.805v-8.391c0-2.18-.739-4.175-1.946-5.805 1.208-1.63 1.946-3.625 1.946-5.805v-8.391c0-5.406-4.398-9.805-9.805-9.805h-8.391c-5.406 0-9.805 4.398-9.805 9.805v8.391c0 2.18.739 4.175 1.946 5.805-1.208 1.63-1.946 3.625-1.946 5.805v8.391c0 5.407 4.398 9.805 9.805 9.805zm10.195-9.805c0 .996-.809 1.805-1.805 1.805h-8.391c-.996 0-1.805-.809-1.805-1.805v-8.391c0-.996.809-1.805 1.805-1.805h8.391c.996 0 1.805.809 1.805 1.805zm-12-28.39c0-.996.809-1.805 1.805-1.805h8.391c.996 0 1.805.809 1.805 1.805v8.391c0 .996-.809 1.805-1.805 1.805h-8.391c-.996 0-1.805-.809-1.805-1.805z"/></g></svg>