<svg id="waypoint" enable-background="new 0 0 300 300" height="512" viewBox="0 0 300 300" width="512" xmlns="http://www.w3.org/2000/svg"><g><circle cx="124" cy="120" fill="#e5efef" r="86"/><path d="m222 238c-6.617 0-12-5.383-12-12s5.383-12 12-12 12 5.383 12 12-5.383 12-12 12zm0-16c-2.207 0-4 1.793-4 4s1.793 4 4 4 4-1.793 4-4-1.793-4-4-4z" fill="#4c241d"/><path d="m126 74c-1.023 0-2.047-.391-2.828-1.172l-12-12c-1.562-1.562-1.562-4.094 0-5.656s4.094-1.562 5.656 0l12 12c1.562 1.562 1.562 4.094 0 5.656-.781.781-1.805 1.172-2.828 1.172z" fill="#4c241d"/><path d="m114 74c-1.023 0-2.047-.391-2.828-1.172-1.562-1.562-1.562-4.094 0-5.656l12-12c1.562-1.562 4.094-1.562 5.656 0s1.562 4.094 0 5.656l-12 12c-.781.781-1.805 1.172-2.828 1.172z" fill="#4c241d"/><circle cx="80" cy="68" fill="#4c241d" r="4.276"/><g><path d="m138 262v-68h24v68" fill="#b5a19c"/><path d="m162 266c-2.211 0-4-1.789-4-4v-64h-16v64c0 2.211-1.789 4-4 4s-4-1.789-4-4v-68c0-2.211 1.789-4 4-4h24c2.211 0 4 1.789 4 4v68c0 2.211-1.789 4-4 4z" fill="#4c241d"/></g><g><path d="m42 179.29v-74.58c0-8.124 6.586-14.71 14.71-14.71h186.58c8.124 0 14.71 6.586 14.71 14.71v74.581c0 8.124-6.586 14.71-14.71 14.71h-186.58c-8.124-.001-14.71-6.587-14.71-14.711z" fill="#fff"/><path d="m243.289 198h-186.578c-10.316 0-18.711-8.395-18.711-18.711v-74.578c0-10.316 8.395-18.711 18.711-18.711h186.578c10.316 0 18.711 8.395 18.711 18.711v74.578c0 10.316-8.395 18.711-18.711 18.711zm-186.578-104c-5.906 0-10.711 4.805-10.711 10.711v74.578c0 5.906 4.805 10.711 10.711 10.711h186.578c5.906 0 10.711-4.805 10.711-10.711v-74.578c0-5.906-4.805-10.711-10.711-10.711z" fill="#4c241d"/></g><g><path d="m58 102h184v80h-184z" fill="#9dc1e4"/><path d="m242 186h-184c-2.211 0-4-1.789-4-4v-80c0-2.211 1.789-4 4-4h184c2.211 0 4 1.789 4 4v80c0 2.211-1.789 4-4 4zm-180-8h176v-72h-176z" fill="#4c241d"/></g><g fill="#4c241d"><path d="m138 166c-2.211 0-4-1.789-4-4v-8h-16v8c0 2.211-1.789 4-4 4s-4-1.789-4-4v-12c0-2.211 1.789-4 4-4h24c2.211 0 4 1.789 4 4v12c0 2.211-1.789 4-4 4z"/><path d="m90 166c-2.211 0-4-1.789-4-4v-28c0-2.211 1.789-4 4-4s4 1.789 4 4v28c0 2.211-1.789 4-4 4z"/><path d="m101.996 166c-.762 0-1.531-.219-2.215-.672l-12-8c-.996-.664-1.645-1.742-1.762-2.934s.305-2.375 1.152-3.223l12-12c1.562-1.562 4.094-1.562 5.656 0s1.562 4.094 0 5.656l-8.551 8.551 7.941 5.293c1.84 1.227 2.336 3.707 1.109 5.547-.767 1.157-2.037 1.782-3.33 1.782z"/><path d="m126 166c-2.211 0-4-1.789-4-4v-12c0-2.211 1.789-4 4-4s4 1.789 4 4v12c0 2.211-1.789 4-4 4z"/><path d="m176.004 166h-8.551c-5.211 0-9.453-4.242-9.453-9.453v-28.414c0-5.586 4.547-10.133 10.133-10.133h9.867c2.211 0 4 1.789 4 4s-1.789 4-4 4h-9.867c-1.176 0-2.133.957-2.133 2.133v9.867h10.004c5.512 0 9.996 4.484 9.996 9.996v8.008c0 5.512-4.484 9.996-9.996 9.996zm-10.004-20v10.547c0 .801.652 1.453 1.453 1.453h8.551c1.102 0 1.996-.895 1.996-1.996v-8.008c0-1.102-.895-1.996-1.996-1.996z"/><path d="m208.195 146h-8.391c-5.406 0-9.805-4.398-9.805-9.805v-8.391c0-5.406 4.398-9.805 9.805-9.805h8.391c5.406 0 9.805 4.398 9.805 9.805v8.391c0 5.407-4.398 9.805-9.805 9.805zm-8.39-20c-.996 0-1.805.809-1.805 1.805v8.391c0 .996.809 1.805 1.805 1.805h8.391c.996 0 1.805-.809 1.805-1.805v-8.391c0-.996-.809-1.805-1.805-1.805z"/><path d="m208.195 166h-8.391c-5.406 0-9.805-4.398-9.805-9.805v-8.391c0-5.406 4.398-9.805 9.805-9.805h8.391c5.406 0 9.805 4.398 9.805 9.805v8.391c0 5.407-4.398 9.805-9.805 9.805zm-8.39-20c-.996 0-1.805.809-1.805 1.805v8.391c0 .996.809 1.805 1.805 1.805h8.391c.996 0 1.805-.809 1.805-1.805v-8.391c0-.996-.809-1.805-1.805-1.805z"/></g></g></svg>